{"title":"The Numbers Station 2013 BRRip 480p x264 AAC - VYTO [P2PDL]","uid":8440692,"size":319613215,"categoryP":"video","categoryS":"movies","magnet":"?xt=urn:btih:9e4cf6ef420f3caf4b85c5ff9ffa44144d9c861a&amp;dn=The+Numbers+Station+2013+BRRip+480p+x264+AAC+-+VYTO+%5BP2PDL%5D&amp;tr=udp%3A%2F%2Ftracker.openbittorrent.com%3A80&amp;tr=udp%3A%2F%2Fopen.demonii.com%3A1337&amp;tr=udp%3A%2F%2Ftracker.coppersurfer.tk%3A6969&amp;tr=udp%3A%2F%2Fexodus.desync.com%3A6969","seeders":0,"leechers":0,"uploader":"ValidusVyto","files":-1,"time":1367765355,"description":"_________________________  Visit us at _________________________\n  &lt;a href=&quot;\nhttp://p2pdl.com&quot; rel=&quot;nofollow&quot; target=&quot;_NEW&quot;&gt;\nhttp://p2pdl.com&lt;/a&gt;  ____________________________ &lt;a href=&quot; http://p2pdl.com&quot; rel=&quot;nofollow&quot; target=&quot;_NEW&quot;&gt; http://p2pdl.com&lt;/a&gt;\n\n\nThe Numbers Station 2013 BRRip 480p x264 AAC - VYTO\n\n\nGenre: Action | Thriller\nPlot: A former black ops agent and the young woman he's assigned to protect fight for survival after\na surprise attack. \nDirector: Kasper Barfoed\nStars: Malin Akerman, John Cusack, Hannah Murray.\nRated: R for violence and language .\n\n\nInfo: &lt;a href=&quot;\nhttp://www.imdb.com/title/tt1659338/&quot; rel=&quot;nofollow&quot; target=&quot;_NEW&quot;&gt;\nhttp://www.imdb.com/title/tt1659338/&lt;/a&gt;\n\nTrailer:\n\n\nFormat                         : MPEG-4\nFile size                      : 301 MiB\nDuration                       : 1h 28mn\nOverall bit rate mode          : Variable\nOverall bit rate               : 473 Kbps\n\nVideo\nFormat                         : AVC\nBit rate                       : 431 Kbps\nWidth                          : 720 pixels\nHeight                         : 304 pixels\nDisplay aspect ratio           : 2.35:1\nFrame rate mode                : Constant\nFrame rate                     : 23.976 fps\nStream size                    : 274 MiB (91%)\nWriting library                : x264 core 130 r2273\n\nAudio\nFormat                         : AAC\nBit rate                       : 40.0 Kbps\nChannel(s)                     : 2 channels\nChannel positions              : Front: L R\nSampling rate                  : 44.1 KHz\nStream size                    : 25.4 MiB (8%)\n\nSubtitle                       : Yes (English)\nSource                         : 720p.BluRay.x264.DTS-HDWinG(Thanks)\n\nScreens:\n &lt;a href=&quot;\nhttp://ultraimg.com/images/XDe0.png&quot; rel=&quot;nofollow&quot; target=&quot;_NEW&quot;&gt;\nhttp://ultraimg.com/images/XDe0.png&lt;/a&gt; &lt;a href=&quot;\nhttp://ultraimg.com/images/LauG.png&quot; rel=&quot;nofollow&quot; target=&quot;_NEW&quot;&gt;\nhttp://ultraimg.com/images/LauG.png&lt;/a&gt; &lt;a href=&quot;\nhttp://ultraimg.com/images/VjKrc.png&quot; rel=&quot;nofollow&quot; target=&quot;_NEW&quot;&gt;\nhttp://ultraimg.com/images/VjKrc.png&lt;/a&gt; &lt;a href=&quot;\nhttp://ultraimg.com/images/PJCU4.png&quot; rel=&quot;nofollow&quot; target=&quot;_NEW&quot;&gt;\nhttp://ultraimg.com/images/PJCU4.png&lt;/a&gt; &lt;a href=&quot;\nhttp://ultraimg.com/images/BqemS.png&quot; rel=&quot;nofollow&quot; target=&quot;_NEW&quot;&gt;\nhttp://ultraimg.com/images/BqemS.png&lt;/a&gt; &lt;a href=&quot;\nhttp://ultraimg.com/images/Lq3hg.png&quot; rel=&quot;nofollow&quot; target=&quot;_NEW&quot;&gt;\nhttp://ultraimg.com/images/Lq3hg.png&lt;/a&gt; &lt;a href=&quot;\nhttp://ultraimg.com/images/IXTO.png&quot; rel=&quot;nofollow&quot; target=&quot;_NEW&quot;&gt;\nhttp://ultraimg.com/images/IXTO.png&lt;/a&gt; &lt;a href=&quot;\nhttp://ultraimg.com/images/HvinZ.png&quot; rel=&quot;nofollow&quot; target=&quot;_NEW&quot;&gt;\nhttp://ultraimg.com/images/HvinZ.png&lt;/a&gt; &lt;a href=&quot;\nhttp://ultraimg.com/images/gdHfq.png&quot; rel=&quot;nofollow&quot; target=&quot;_NEW&quot;&gt;\nhttp://ultraimg.com/images/gdHfq.png&lt;/a&gt;\n\n\n----------------------------------------------------------------------------------------------------\n\n\nEncoded using revolutionary 10bit encoding, which enables us to provide you more crispier \nand sharper images at small sizes, just make sure you follow our instructions without a fault.\nRecommend to you to use latest version of VLC player. Install K-Lite Codec Pack or shark007 codecs\nin case of any kind of problem in playback (For non-VLC Media Player users). Alternatively, install\nCore AVC codecs, the fastest decoder that there is coupled with Community Center Codec Pack and play\non Windows Media Player Classic. Check sample to be sure.\nEnjoy!\n\nEncoder Notes:Looking For Early Access To Anything You Can Provide DVDScr, R5, DVDR, BluRay, Direct\nAudio, Music Releases and Seedboxes. We require dedicated servers, so as to do more \nand fast releases of movies.\nIf You Got anything to offer please contact us at &quot;&lt;a class=&quot;__cf_email__&quot; href=&quot;/cdn-cgi/l/email-protection&quot; data-cfemail=&quot;fd8d8f9abd95888e95d39e9290&quot;&gt;[email&amp;#160;protected]&lt;/a&gt;&lt;script data-cfhash='f9e31' type=&quot;text/javascript&quot;&gt;\n/* &lt;![CDATA[ */!function(){try{var t=&quot;currentScript&quot;in document?document.currentScript:function(){for(var t=document.getElementsByTagName(&quot;script&quot;),e=t.length;e--;)if(t[e].getAttribute(&quot;data-cfhash&quot;))return t[e]}();if(t&amp;&amp;t.previousSibling){var e,r,n,i,c=t.previousSibling,a=c.getAttribute(&quot;data-cfemail&quot;);if(a){for(e=&quot;&quot;,r=parseInt(a.substr(0,2),16),n=2;a.length-n;n+=2)i=parseInt(a.substr(n,2),16)^r,e+=String.fromCharCode(i);e=document.createTextNode(e),c.parentNode.replaceChild(e,c)}t.parentNode.removeChild(t);}}catch(u){}}()/* ]]&gt; */&lt;/script&gt;&quot;.\n\nFace book Fan Page:   &lt;a href=&quot;\nhttp://www.fb.me/p2pdl&quot; rel=&quot;nofollow&quot; target=&quot;_NEW&quot;&gt;\nhttp://www.fb.me/p2pdl&lt;/a&gt;","torrent":{"xt":"urn:btih:9e4cf6ef420f3caf4b85c5ff9ffa44144d9c861a","amp;dn":"The+Numbers+Station+2013+BRRip+480p+x264+AAC+-+VYTO+%5BP2PDL%5D","amp;tr":["udp%3A%2F%2Ftracker.openbittorrent.com%3A80","udp%3A%2F%2Fopen.demonii.com%3A1337","udp%3A%2F%2Ftracker.coppersurfer.tk%3A6969","udp%3A%2F%2Fexodus.desync.com%3A6969"],"infoHash":"9e4cf6ef420f3caf4b85c5ff9ffa44144d9c861a","infoHashBuffer":{"type":"Buffer","data":[158,76,246,239,66,15,60,175,75,133,197,255,159,250,68,20,77,156,134,26]},"announce":[],"urlList":[]}}